<?xml version="1.0" encoding="UTF-8"?>
<svg id="Layer_1" data-name="Layer 1" xmlns="http://www.w3.org/2000/svg" viewBox="0 0 225.22 236.16">
  <defs>
    <style>
      .cls-1 {
        fill: #01041e;
      }
    </style>
  </defs>
  <g>
    <path class="cls-1" d="M59.53,225.1c-.85-.49-1.8-.9-2.83-1.25-.76-.26-1.46-.5-2.08-.72-.63-.22-1.19-.45-1.67-.71-.48-.25-.85-.56-1.11-.93s-.39-.83-.39-1.4.14-1.06.42-1.45c.28-.39.65-.69,1.12-.9.47-.21,1-.3,1.6-.29.7,0,1.29.15,1.79.44s.87.66,1.12,1.11.39.94.39,1.46h3.84c-.02-1.24-.33-2.3-.93-3.2-.6-.89-1.42-1.58-2.47-2.08-1.05-.5-2.28-.75-3.67-.75s-2.6.25-3.65.74-1.87,1.17-2.46,2.05c-.59.88-.88,1.93-.88,3.15,0,1.46.42,2.63,1.27,3.51.85.88,2.11,1.6,3.77,2.16.78.24,1.52.48,2.23.71.71.23,1.33.5,1.86.79s.95.67,1.25,1.09c.3.43.45.98.45,1.64,0,.58-.14,1.08-.42,1.51-.28.43-.69.76-1.21.99-.53.23-1.16.34-1.88.34-.84,0-1.56-.16-2.16-.48-.6-.32-1.06-.75-1.38-1.3-.32-.55-.49-1.17-.51-1.88h-3.81c.02,1.38.36,2.57,1.04,3.57.67,1,1.59,1.77,2.77,2.31,1.18.54,2.53.81,4.05.81,1.6,0,2.94-.29,4.02-.86s1.9-1.32,2.46-2.25c.56-.93.84-1.93.84-3.01,0-1.24-.25-2.25-.75-3.03s-1.17-1.42-2.02-1.91Z"/>
    <polygon class="cls-1" points="65.25 235.8 78.81 235.8 78.81 232.88 68.85 232.88 68.85 226.59 77.91 226.59 77.91 223.74 68.85 223.74 68.85 217.71 78.81 217.71 78.81 214.8 65.25 214.8 65.25 235.8"/>
    <path class="cls-1" d="M93.67,226.59c1.09-.58,1.89-1.35,2.42-2.31.52-.96.78-2,.78-3.12,0-1.2-.27-2.28-.79-3.23-.53-.95-1.33-1.71-2.42-2.28-1.08-.57-2.46-.86-4.14-.86h-7.53v21h3.6v-8.34h3.38l3.97,8.34h4.14l-4.39-8.8c.35-.12.68-.25.98-.41ZM85.59,217.8h3.69c1.36,0,2.35.32,2.97.95s.93,1.46.93,2.5-.31,1.92-.94,2.56c-.63.65-1.61.98-2.92.98h-3.72v-6.99Z"/>
    <polygon class="cls-1" points="107.52 232.1 101.49 214.8 97.62 214.8 105.33 235.8 109.71 235.8 117.42 214.8 113.61 214.8 107.52 232.1"/>
    <rect class="cls-1" x="119.49" y="214.8" width="3.6" height="21"/>
    <path class="cls-1" d="M132.61,218.59c.95-.61,2.08-.92,3.41-.92,1.44,0,2.6.34,3.48,1.02s1.45,1.61,1.71,2.79h3.96c-.42-2.24-1.42-3.98-3-5.21-1.58-1.23-3.62-1.85-6.12-1.85-2.08,0-3.88.46-5.38,1.38-1.51.92-2.67,2.2-3.46,3.83-.8,1.63-1.2,3.53-1.2,5.69s.4,4.02,1.2,5.65c.8,1.63,1.95,2.9,3.46,3.81,1.51.91,3.3,1.37,5.38,1.37,2.5,0,4.54-.61,6.12-1.82s2.58-2.88,3-5h-3.96c-.28,1.12-.85,2-1.72,2.62s-2.03.95-3.46.95c-1.32,0-2.46-.3-3.41-.92-.95-.61-1.68-1.48-2.19-2.61-.51-1.13-.76-2.48-.76-4.06s.25-2.95.76-4.1c.51-1.15,1.24-2.03,2.19-2.64Z"/>
    <polygon class="cls-1" points="148.08 235.8 161.64 235.8 161.64 232.88 151.68 232.88 151.68 226.59 160.74 226.59 160.74 223.74 151.68 223.74 151.68 217.71 161.64 217.71 161.64 214.8 148.08 214.8 148.08 235.8"/>
    <path class="cls-1" d="M178.44,227c-.5-.78-1.17-1.42-2.02-1.91-.85-.49-1.8-.9-2.83-1.25-.76-.26-1.46-.5-2.08-.72-.63-.22-1.19-.45-1.67-.71-.48-.25-.85-.56-1.11-.93s-.39-.83-.39-1.4.14-1.06.42-1.45c.28-.39.65-.69,1.12-.9.47-.21,1-.3,1.6-.29.7,0,1.29.15,1.79.44s.87.66,1.12,1.11.39.94.39,1.46h3.84c-.02-1.24-.33-2.3-.93-3.2-.6-.89-1.42-1.58-2.47-2.08-1.05-.5-2.28-.75-3.67-.75s-2.6.25-3.65.74-1.87,1.17-2.46,2.05c-.59.88-.88,1.93-.88,3.15,0,1.46.42,2.63,1.27,3.51.85.88,2.11,1.6,3.77,2.16.78.24,1.52.48,2.23.71.71.23,1.33.5,1.86.79s.95.67,1.25,1.09c.3.43.45.98.45,1.64,0,.58-.14,1.08-.42,1.51-.28.43-.69.76-1.21.99-.53.23-1.16.34-1.88.34-.84,0-1.56-.16-2.16-.48-.6-.32-1.06-.75-1.38-1.3-.32-.55-.49-1.17-.51-1.88h-3.81c.02,1.38.36,2.57,1.04,3.57.67,1,1.59,1.77,2.77,2.31,1.18.54,2.53.81,4.05.81,1.6,0,2.94-.29,4.02-.86s1.9-1.32,2.46-2.25c.56-.93.84-1.93.84-3.01,0-1.24-.25-2.25-.75-3.03Z"/>
  </g>
  <g>
    <g>
      <g>
        <path class="cls-1" d="M15.77,11.32c1.85,1.4,4.1,2.52,6.39,3.61l-2.72-.54c-1.57-.31-2.6-.95-3.81.19-1.9,1.77-.54,4.43,1.94,4.89.87.16,1.49.58,3.09.84-1.01.07-1.95.27-2.75.61-.62.27-.91.35-1.01,1.04-.15.96.48,1.57,1.86,1.86,2.52.87,5.84.96,9.88.37-3.07,1.59-6.38,2.3-9.9,2.26l2.66,4.65,2.74-.87c-.04.79-.79,1.71-1.76,2.88l2.21,2.36c2.57-.77,5.96-3.59,9.45-6.46-2.23,3.81-4.91,6.65-8.1,8.32l2.14,2.29c1.39,1.16,2.61,1.41,3.61.46,4.93-4.58,7.79-11.06,10.67-16.93,1.29.8,1.38,1.29,2.88.55l.4-.2c.74-.37,1.37-.61,1.84-.94,1.38-.99,1.01-2.34.44-3.6l-2.63-5.8c-.45-.59-.95-.92-1.51-1.03-.88-.17-3.51.82-4.17,1.44-.44.4-.67.97-.66,1.72-9.07-1.41-15.79-6.26-22.22-11.53-3.23-3.03-3.53-.11-3.22,3.34.23,2.57.15,2.63,2.28,4.23Z"/>
        <path class="cls-1" d="M98.25,160.04l10.88-10.88v-58.93l-18.88-18.88h-15.27l-5.53-8.07c14.35-1.82,29.01-6.8,35.76-19.68,1-1.91,5.81-12.02,1.8-22.71C100.15,2.57,71.23-4.3,51.78,2.67c-2.8,1-5.1,2.18-6.85,3.21-.64.38-.92,1.16-.66,1.86.66,1.77,1.34,3.56,2.06,5.37,1.46,3.69,2.95,7.25,4.46,10.68.36.81,1.32,1.14,2.12.74,1.49-.75,3.11-1.41,4.84-1.92,6.11-1.83,13.58-1.96,19.98-.35,5.09,1.28,8.93,3.6,9.8,5.93.7,1.86-.21,4.7-.75,5.76-2.58,4.93-10.62,7.21-16.9,8.26-9.44,1.58-19.96,1.26-26.91,1.04-11.78-.36-23.65-2.45-35.3-6.21-.8-.26-1.67.17-1.94.97L.08,54.83c-.27.81.17,1.69.98,1.96,13.55,4.4,27.39,6.84,41.17,7.27l5,7.3H8.42v8.28c.3-.05,1.65-.24,2.96.64,1.36.91,1.68,2.29,1.74,2.57,0,0-.03,80.72-.03,80.72h-3.43v8.13h38.89v-8.13h-11.8v-3.5l10.88-10.88v-59.03h17.15c5.47,0,9.91,4.44,9.91,9.91v63.47h-3.85v8.22h39.2v-8.21h-11.78v-3.52Z"/>
        <path class="cls-1" d="M202.41,163.58v-3.54l10.94-10.94v-59.29l-18.99-18.99h-43.25s0-17.54,0-17.54h-41.42v8.31c1.58-.01,3.16-.03,4.74-.04-.01,3.46-.02,6.93-.03,10.39l14.54.03c-7.07,2.48-12.14,9.2-12.15,17.11l-.05,24.28h34.73v-23.61h27.23v73.83h-3.87v8.27h39.44v-8.26h-11.85Z"/>
      </g>
      <path class="cls-1" d="M163.29,132.17h1.23v-18.94h-27.44c-10.35,0-18.74,8.39-18.74,18.74,0,13.23,0,31.63,0,31.63h-3.45v8.18h44.81v-8.18h-6.55l-.02-21.25c0-5.62,4.55-10.18,10.17-10.18Z"/>
    </g>
    <g>
      <path class="cls-1" d="M11.23,207.32c-2.23,0-4.08-.48-5.57-1.45-1.49-.97-2.54-2.28-3.17-3.95l4.31-2.5c.87,2.02,2.4,3.03,4.59,3.03,1.98,0,2.97-.59,2.97-1.78,0-.65-.32-1.15-.95-1.51-.64-.36-1.83-.79-3.57-1.26-.92-.25-1.72-.53-2.4-.84-.69-.31-1.36-.72-2.01-1.23-.66-.51-1.16-1.15-1.5-1.92-.34-.77-.52-1.65-.52-2.65,0-2.02.72-3.63,2.17-4.84,1.45-1.21,3.17-1.81,5.17-1.81,1.79,0,3.37.42,4.75,1.26,1.37.84,2.46,2.07,3.25,3.67l-4.21,2.47c-.4-.83-.88-1.46-1.47-1.89-.58-.43-1.35-.64-2.31-.64-.75,0-1.33.16-1.73.48-.41.32-.61.71-.61,1.17,0,.54.25,1.01.77,1.4.51.4,1.57.83,3.17,1.31.87.27,1.55.49,2.03.66.48.17,1.09.44,1.83.83.74.38,1.3.79,1.69,1.22.38.43.73.99,1.03,1.69.3.7.45,1.49.45,2.39,0,2.08-.75,3.72-2.25,4.92-1.5,1.2-3.46,1.8-5.87,1.8Z"/>
      <path class="cls-1" d="M33.56,185.03h5v21.86h-5v-8.68h-6.87v8.68h-5v-21.86h5v8.37h6.87v-8.37Z"/>
      <path class="cls-1" d="M42.3,185.03h5v21.86h-5v-21.86Z"/>
      <path class="cls-1" d="M68.71,206.88h-5.68l-6.99-10.1v10.1h-5v-21.86h5v9.49l6.68-9.49h5.68l-7.37,10.65,7.68,11.21Z"/>
      <path class="cls-1" d="M89.04,207.29c-3.29,0-6.02-1.09-8.18-3.26-2.17-2.17-3.25-4.87-3.25-8.07s1.08-5.9,3.25-8.07c2.16-2.17,4.89-3.26,8.18-3.26,1.98,0,3.8.47,5.48,1.41,1.68.94,2.98,2.21,3.92,3.81l-3.12,1.81c-.58-1.08-1.43-1.94-2.54-2.58-1.11-.63-2.36-.95-3.73-.95-2.33,0-4.22.74-5.67,2.22-1.45,1.48-2.17,3.35-2.17,5.62s.72,4.14,2.17,5.62c1.45,1.48,3.34,2.22,5.67,2.22,1.37,0,2.62-.32,3.75-.95,1.12-.63,1.97-1.49,2.53-2.58l3.12,1.78c-.92,1.6-2.21,2.88-3.89,3.82-1.68.95-3.51,1.42-5.51,1.42Z"/>
      <path class="cls-1" d="M104.99,203.45h8.9v3.43h-12.49v-21.86h3.59v18.42Z"/>
      <path class="cls-1" d="M120.13,203.45h9.68v3.43h-13.27v-21.86h13.11v3.43h-9.52v5.68h8.74v3.4h-8.74v5.9Z"/>
      <path class="cls-1" d="M147.64,206.88l-1.54-4.4h-9.29l-1.53,4.4h-3.9l7.93-21.86h4.31l7.9,21.86h-3.87ZM137.99,199.11h6.92l-3.45-9.87-3.47,9.87Z"/>
      <path class="cls-1" d="M166.96,185.03h3.59v21.86h-2.81l-10.3-14.83v14.83h-3.59v-21.86h2.74l10.37,14.93v-14.93Z"/>
      <path class="cls-1" d="M174.92,185.03h3.59v21.86h-3.59v-21.86Z"/>
      <path class="cls-1" d="M196,185.03h3.59v21.86h-2.81l-10.3-14.83v14.83h-3.59v-21.86h2.74l10.37,14.93v-14.93Z"/>
      <path class="cls-1" d="M225.22,195.58v1.5c0,3-.99,5.45-2.97,7.35-1.98,1.91-4.56,2.86-7.74,2.86-3.37,0-6.16-1.09-8.35-3.28-2.2-2.19-3.29-4.87-3.29-8.06s1.1-5.84,3.29-8.04c2.2-2.2,4.92-3.29,8.16-3.29,2.04,0,3.9.47,5.59,1.41,1.69.94,3,2.2,3.93,3.78l-3.09,1.78c-.58-1.04-1.45-1.88-2.59-2.51-1.15-.63-2.43-.95-3.84-.95-2.29,0-4.17.75-5.65,2.25-1.48,1.5-2.22,3.37-2.22,5.62s.74,4.11,2.23,5.59c1.49,1.48,3.44,2.22,5.85,2.22,1.94,0,3.51-.45,4.73-1.36,1.22-.91,1.99-2.12,2.33-3.64h-7.31v-3.22h10.93Z"/>
    </g>
  </g>
</svg>